<?xml version="1.0" encoding="UTF-8" standalone="no"?>
<!-- Created with Inkscape (http://www.inkscape.org/) -->

<svg
   width="33.139957mm"
   height="35.664352mm"
   viewBox="0 0 33.139957 35.664352"
   version="1.1"
   id="svg5"
   fil="currentColor"
   xmlns:sodipodi="http://sodipodi.sourceforge.net/DTD/sodipodi-0.dtd"
   xmlns="http://www.w3.org/2000/svg"
   xmlns:svg="http://www.w3.org/2000/svg"><sodipodi:namedview
     id="namedview7"
     bordercolor="#666666"
     borderopacity="1.0"
     id="defs2" /><path
     id="path529"
     style="fill:#ffffff;fill-opacity:1;stroke:none;stroke-width:0.264583px;stroke-linecap:butt;stroke-linejoin:miter;stroke-opacity:1"
     d="M 2.8349272,3.7976666e-4 C 2.0897772,0.00717977 1.2448372,0.30136877 0.75184725,0.92848877 c -0.47255,0.60111903 -0.6894,1.52422203 -0.71934,2.32647303 -0.0595,1.594366 -0.0191,3.258716 -0.0191,3.258716 l 0.10904,14.1030132 6.45748995,-6.940143 0.0129,-9.9409952 c 0,0 0.21012,-1.454661 1.36167,-0.630969 1.15156,0.823689 3.5345898,2.440631 3.7646298,5.321639 0.23003,2.8810102 -1.13006,4.7176332 -3.5723898,6.9143062 -2.88798,2.597492 -5.68941,5.395542 -5.82859,10.290842 0.75556,9.45975 13.1551898,12.13984 19.8861298,8.42171 4.93643,-2.92286 5.48803,-3.56877 5.48803,-3.56877 l -3.33881,-4.54391 c 0,0 -4.85491,4.30458 -9.00514,4.04678 -4.15022,-0.2578 -7.1263798,-2.8884 -6.9732098,-5.18831 0.15317,-2.29992 2.2666798,-4.20708 4.1149898,-5.92264 0,0 2.44523,-2.768712 2.64325,-3.367753 0.19801,-0.599043 0.0674,-0.988915 0.26148,-1.02216 0.19409,-0.03325 0.48415,-0.07682 0.44959,0.258382 -0.0346,0.335204 0.35129,2.277483 1.65881,3.258201 1.30751,0.98072 2.3893,1.97329 6.17172,1.67793 3.7824,-0.29536 4.69532,-4.82451 4.69532,-4.82451 0,0 0.12631,-0.260398 0.26355,0 0.13723,0.260399 1.50171,2.274464 0.0222,5.34438 -1.47946,3.06991 -3.05201,4.53822 -3.05201,4.53822 l 3.44217,4.61161 c 0,0 4.74992,-3.95182 4.01681,-10.41849 -0.73312,-6.466679 -6.78538,-10.8996682 -9.17774,-11.1827802 -2.39236,-0.28311 -3.67988,0.171566 -3.67988,0.171566 l -0.16071,-0.412378 c 0,0 0.79105,-0.708786 0.8201,-1.411283 0.0291,-0.702496 -0.12718,-4.968622 -4.70927,-4.09329 -2.57927,0.492725 -2.39314,3.408577 -2.39314,3.408577 l -0.24701,0.19172 c 0,0 -4.7977098,-5.65748503 -10.6804798,-5.60379303334 z M 14.988187,8.3859148 c 0.6007,0.597712 2.32857,0.645115 2.77916,0.630969 0.0218,-0.01006 0.0413,-0.01517 0.0589,-0.01447 0.0883,0.0035 0.055,0.01089 -0.0589,0.01447 -0.51809,0.239498 -2.14096,3.3842712 -1.95492,2.5755542 0.19385,-0.842695 -0.82424,-3.2065232 -0.82424,-3.2065232 z" /></svg>
